<?xml version="1.0" encoding="UTF-8" standalone="no"?>
<!-- Created with Inkscape (http://www.inkscape.org/) -->

<svg
   width="3.0000267mm"
   height="3.0000226mm"
   viewBox="0 0 3.0000267 3.0000228"
   version="1.1"
   id="svg1"
   xml:space="preserve"
   xmlns:inkscape="http://www.inkscape.org/namespaces/inkscape"
   xmlns:sodipodi="http://sodipodi.sourceforge.net/DTD/sodipodi-0.dtd"
   xmlns="http://www.w3.org/2000/svg"
   xmlns:svg="http://www.w3.org/2000/svg"><sodipodi:namedview
     id="namedview1"
     pagecolor="#ffffff"
     bordercolor="#000000"
     borderopacity="0.25"
     inkscape:showpageshadow="2"
     inkscape:pageopacity="0.0"
     inkscape:pagecheckerboard="0"
     inkscape:deskcolor="#d1d1d1"
     inkscape:document-units="mm"><inkscape:page
       x="-3.4397967e-08"
       y="-1.3976838e-06"
       width="3.0000267"
       height="3.0000229"
       id="page3"
       margin="0"
       bleed="0" /></sodipodi:namedview><defs
     id="defs1"><clipPath
       clipPathUnits="userSpaceOnUse"
       id="clipPath235"><path
         d="M 0,364.252 H 171.779 V 0 H 0 Z"
         transform="translate(-76.632804,-246.49031)"
         id="path235" /></clipPath></defs><g
     id="layer-MC0"
     inkscape:groupmode="layer"
     inkscape:label="labels"
     transform="matrix(0.26458332,0,0,0.26458334,-24.516918,-39.641886)"><path
       id="path234"
       d="m 0,0 c -1.516,0 -1.883,0.906 -2.151,1.568 -0.212,0.524 -0.332,0.776 -0.733,0.776 -0.4,0 -0.519,-0.251 -0.73,-0.775 C -3.883,0.907 -4.249,0 -5.768,0 v 0.5 c 1.182,0 1.428,0.61 1.69,1.257 0.206,0.51 0.439,1.087 1.194,1.087 0.755,0 0.989,-0.578 1.196,-1.088 C -1.426,1.11 -1.179,0.5 0,0.5 Z m -2.884,5.391 c -2.347,0 -4.252,-1.904 -4.252,-4.252 0,-2.349 1.905,-4.252 4.252,-4.252 2.35,0 4.252,1.903 4.252,4.252 0,2.348 -1.902,4.252 -4.252,4.252"
       style="fill:#03a3ac;fill-opacity:1;fill-rule:nonzero;stroke:none"
       transform="matrix(1.3333333,0,0,-1.3333333,102.17707,157.0156)"
       clip-path="url(#clipPath235)" /></g></svg>
