<?xml version="1.0" encoding="UTF-8" standalone="no"?>
<!-- Created with Inkscape (http://www.inkscape.org/) -->

<svg
   width="2.9996715mm"
   height="2.9993162mm"
   viewBox="0 0 2.9996715 2.9993163"
   version="1.1"
   id="svg1"
   xml:space="preserve"
   xmlns:inkscape="http://www.inkscape.org/namespaces/inkscape"
   xmlns:sodipodi="http://sodipodi.sourceforge.net/DTD/sodipodi-0.dtd"
   xmlns="http://www.w3.org/2000/svg"
   xmlns:svg="http://www.w3.org/2000/svg"><sodipodi:namedview
     id="namedview1"
     pagecolor="#ffffff"
     bordercolor="#000000"
     borderopacity="0.25"
     inkscape:showpageshadow="2"
     inkscape:pageopacity="0.0"
     inkscape:pagecheckerboard="0"
     inkscape:deskcolor="#d1d1d1"
     inkscape:document-units="mm"><inkscape:page
       x="1.4109658e-06"
       y="2.7118008e-06"
       width="2.9996715"
       height="2.9993165"
       id="page3"
       margin="0"
       bleed="0" /></sodipodi:namedview><defs
     id="defs1"><clipPath
       clipPathUnits="userSpaceOnUse"
       id="clipPath367"><path
         d="M 0,364.252 H 171.779 V 0 H 0 Z"
         transform="translate(-74.734402,-186.4375)"
         id="path367" /></clipPath><clipPath
       clipPathUnits="userSpaceOnUse"
       id="clipPath369"><path
         d="M 0,364.252 H 171.779 V 0 H 0 Z"
         id="path369" /></clipPath><clipPath
       clipPathUnits="userSpaceOnUse"
       id="clipPath371"><path
         d="M 0,364.252 H 171.779 V 0 H 0 Z"
         transform="translate(-76.226604,-185.9629)"
         id="path371" /></clipPath></defs><g
     id="layer-MC0"
     inkscape:groupmode="layer"
     inkscape:label="labels"
     transform="matrix(0.26458332,0,0,0.26458334,-24.517193,-61.249669)"><path
       id="path366"
       d="M 0,0 C -0.234,0 -0.426,0.191 -0.426,0.426 -0.426,0.66 -0.234,0.852 0,0.852 0.234,0.852 0.424,0.66 0.424,0.426 0.424,0.191 0.234,0 0,0 m -2.104,0.002 c -0.235,0 -0.424,0.189 -0.424,0.424 0,0.234 0.189,0.426 0.424,0.426 0.235,0 0.424,-0.192 0.424,-0.426 0,-0.235 -0.189,-0.424 -0.424,-0.424 m 1.116,1.56 c -1.165,0 -2.109,-0.515 -2.109,-1.152 0,-0.637 0.944,-1.152 2.109,-1.152 1.166,0 2.11,0.515 2.11,1.152 0,0.637 -0.944,1.152 -2.11,1.152"
       style="fill:#03a3ac;fill-opacity:1;fill-rule:nonzero;stroke:none"
       transform="matrix(1.3333333,0,0,-1.3333333,99.645867,237.086)"
       clip-path="url(#clipPath367)" /><path
       id="path368"
       d="m 73.273,185.02 h 0.951 v 0.326 h -0.951 z"
       style="fill:#03a3ac;fill-opacity:1;fill-rule:nonzero;stroke:none"
       transform="matrix(1.3333333,0,0,-1.3333333,0,485.66933)"
       clip-path="url(#clipPath369)" /><path
       id="path370"
       d="m 0,0 c -0.234,-0.547 -0.725,-0.99 -1.36,-1.234 v -1.069 h -2.239 v 1.069 C -4.234,-0.99 -4.725,-0.547 -4.959,0 h -0.553 v 1.252 h 0.489 c 0.294,0.926 1.317,1.615 2.543,1.615 1.227,0 2.25,-0.689 2.544,-1.615 H 0.552 V 0 Z m -2.478,4.668 c -2.348,0 -4.251,-1.902 -4.251,-4.25 0,-2.35 1.903,-4.252 4.251,-4.252 2.349,0 4.252,1.902 4.252,4.252 0,2.348 -1.903,4.25 -4.252,4.25"
       style="fill:#03a3ac;fill-opacity:1;fill-rule:nonzero;stroke:none"
       transform="matrix(1.3333333,0,0,-1.3333333,101.63547,237.7188)"
       clip-path="url(#clipPath371)" /></g></svg>
