<?xml version="1.0" encoding="UTF-8" standalone="no"?>
<!-- Created with Inkscape (http://www.inkscape.org/) -->

<svg
   width="3.0000267mm"
   height="3.0000226mm"
   viewBox="0 0 3.0000267 3.0000228"
   version="1.1"
   id="svg1"
   xml:space="preserve"
   xmlns:inkscape="http://www.inkscape.org/namespaces/inkscape"
   xmlns:sodipodi="http://sodipodi.sourceforge.net/DTD/sodipodi-0.dtd"
   xmlns="http://www.w3.org/2000/svg"
   xmlns:svg="http://www.w3.org/2000/svg"><sodipodi:namedview
     id="namedview1"
     pagecolor="#ffffff"
     bordercolor="#000000"
     borderopacity="0.25"
     inkscape:showpageshadow="2"
     inkscape:pageopacity="0.0"
     inkscape:pagecheckerboard="0"
     inkscape:deskcolor="#d1d1d1"
     inkscape:document-units="mm"><inkscape:page
       x="-3.4398052e-08"
       y="-1.7803723e-06"
       width="3.0000267"
       height="3.0000229"
       id="page3"
       margin="0"
       bleed="0" /></sodipodi:namedview><defs
     id="defs1"><clipPath
       clipPathUnits="userSpaceOnUse"
       id="clipPath381"><path
         d="M 0,364.252 H 171.779 V 0 H 0 Z"
         id="path381" /></clipPath><clipPath
       clipPathUnits="userSpaceOnUse"
       id="clipPath383"><path
         d="M 0,364.252 H 171.779 V 0 H 0 Z"
         id="path383" /></clipPath><clipPath
       clipPathUnits="userSpaceOnUse"
       id="clipPath385"><path
         d="M 0,364.252 H 171.779 V 0 H 0 Z"
         id="path385" /></clipPath><clipPath
       clipPathUnits="userSpaceOnUse"
       id="clipPath387"><path
         d="M 0,364.252 H 171.779 V 0 H 0 Z"
         id="path387" /></clipPath><clipPath
       clipPathUnits="userSpaceOnUse"
       id="clipPath389"><path
         d="M 0,364.252 H 171.779 V 0 H 0 Z"
         id="path389" /></clipPath><clipPath
       clipPathUnits="userSpaceOnUse"
       id="clipPath391"><path
         d="M 0,364.252 H 171.779 V 0 H 0 Z"
         id="path391" /></clipPath><clipPath
       clipPathUnits="userSpaceOnUse"
       id="clipPath393"><path
         d="M 0,364.252 H 171.779 V 0 H 0 Z"
         id="path393" /></clipPath><clipPath
       clipPathUnits="userSpaceOnUse"
       id="clipPath395"><path
         d="M 0,364.252 H 171.779 V 0 H 0 Z"
         id="path395" /></clipPath><clipPath
       clipPathUnits="userSpaceOnUse"
       id="clipPath397"><path
         d="M 0,364.252 H 171.779 V 0 H 0 Z"
         id="path397" /></clipPath><clipPath
       clipPathUnits="userSpaceOnUse"
       id="clipPath399"><path
         d="M 0,364.252 H 171.779 V 0 H 0 Z"
         id="path399" /></clipPath></defs><g
     id="layer-MC0"
     inkscape:groupmode="layer"
     inkscape:label="labels"
     transform="matrix(0.26458332,0,0,0.26458334,-24.516979,-50.495908)"><path
       id="path380"
       d="m 71.639,216.469 h 1.073 v 0.787 h -1.073 z"
       style="fill:#03a3ac;fill-opacity:1;fill-rule:nonzero;stroke:none"
       transform="matrix(1.3333333,0,0,-1.3333333,0,485.66933)"
       clip-path="url(#clipPath381)" /><path
       id="path382"
       d="m 75.859,217.256 h -1.073 v -0.787 h 1.073 z"
       style="fill:#03a3ac;fill-opacity:1;fill-rule:nonzero;stroke:none"
       transform="matrix(1.3333333,0,0,-1.3333333,0,485.66933)"
       clip-path="url(#clipPath383)" /><path
       id="path384"
       d="m 74.286,217.256 h -1.074 v -0.787 h 1.074 z"
       style="fill:#03a3ac;fill-opacity:1;fill-rule:nonzero;stroke:none"
       transform="matrix(1.3333333,0,0,-1.3333333,0,485.66933)"
       clip-path="url(#clipPath385)" /><path
       id="path386"
       d="m 73.212,217.756 h 1.074 v 0.787 h -1.074 z"
       style="fill:#03a3ac;fill-opacity:1;fill-rule:nonzero;stroke:none"
       transform="matrix(1.3333333,0,0,-1.3333333,0,485.66933)"
       clip-path="url(#clipPath387)" /><path
       id="path388"
       d="m 72.712,215.969 h -1.073 v -0.787 h 1.073 z"
       style="fill:#03a3ac;fill-opacity:1;fill-rule:nonzero;stroke:none"
       transform="matrix(1.3333333,0,0,-1.3333333,0,485.66933)"
       clip-path="url(#clipPath389)" /><path
       id="path390"
       d="m 74.286,215.969 h -1.074 v -0.787 h 1.074 z"
       style="fill:#03a3ac;fill-opacity:1;fill-rule:nonzero;stroke:none"
       transform="matrix(1.3333333,0,0,-1.3333333,0,485.66933)"
       clip-path="url(#clipPath391)" /><path
       id="path392"
       d="m 72.712,218.543 h -1.073 v -0.787 h 1.073 z"
       style="fill:#03a3ac;fill-opacity:1;fill-rule:nonzero;stroke:none"
       transform="matrix(1.3333333,0,0,-1.3333333,0,485.66933)"
       clip-path="url(#clipPath393)" /><path
       id="path394"
       d="m 76.359,214.682 h -5.221 v 4.361 h 5.221 z m -2.61,6.432 c -2.348,0 -4.252,-1.903 -4.252,-4.252 0,-2.348 1.904,-4.252 4.252,-4.252 2.35,0 4.252,1.904 4.252,4.252 0,2.349 -1.902,4.252 -4.252,4.252"
       style="fill:#03a3ac;fill-opacity:1;fill-rule:nonzero;stroke:none"
       transform="matrix(1.3333333,0,0,-1.3333333,0,485.66933)"
       clip-path="url(#clipPath395)" /><path
       id="path396"
       d="m 74.786,217.756 h 1.073 v 0.787 h -1.073 z"
       style="fill:#03a3ac;fill-opacity:1;fill-rule:nonzero;stroke:none"
       transform="matrix(1.3333333,0,0,-1.3333333,0,485.66933)"
       clip-path="url(#clipPath397)" /><path
       id="path398"
       d="m 74.786,215.182 h 1.073 v 0.787 h -1.073 z"
       style="fill:#03a3ac;fill-opacity:1;fill-rule:nonzero;stroke:none"
       transform="matrix(1.3333333,0,0,-1.3333333,0,485.66933)"
       clip-path="url(#clipPath399)" /></g></svg>
