<?xml version="1.0" encoding="UTF-8" standalone="no"?>
<!-- Created with Inkscape (http://www.inkscape.org/) -->

<svg
   width="3.0000267mm"
   height="2.9996715mm"
   viewBox="0 0 3.0000267 2.9996716"
   version="1.1"
   id="svg1"
   xml:space="preserve"
   xmlns:inkscape="http://www.inkscape.org/namespaces/inkscape"
   xmlns:sodipodi="http://sodipodi.sourceforge.net/DTD/sodipodi-0.dtd"
   xmlns="http://www.w3.org/2000/svg"
   xmlns:svg="http://www.w3.org/2000/svg"><sodipodi:namedview
     id="namedview1"
     pagecolor="#ffffff"
     bordercolor="#000000"
     borderopacity="0.25"
     inkscape:showpageshadow="2"
     inkscape:pageopacity="0.0"
     inkscape:pagecheckerboard="0"
     inkscape:deskcolor="#d1d1d1"
     inkscape:document-units="mm"><inkscape:page
       x="-3.4397839e-08"
       y="1.2387334e-06"
       width="3.0000267"
       height="2.9996717"
       id="page3"
       margin="0"
       bleed="0" /></sodipodi:namedview><defs
     id="defs1"><clipPath
       clipPathUnits="userSpaceOnUse"
       id="clipPath219"><path
         d="M 0,364.252 H 171.779 V 0 H 0 Z"
         id="path219" /></clipPath><clipPath
       clipPathUnits="userSpaceOnUse"
       id="clipPath221"><path
         d="M 0,364.252 H 171.779 V 0 H 0 Z"
         id="path221" /></clipPath><clipPath
       clipPathUnits="userSpaceOnUse"
       id="clipPath223"><path
         d="M 0,364.252 H 171.779 V 0 H 0 Z"
         transform="translate(-73.545902,-263.5586)"
         id="path223" /></clipPath><clipPath
       clipPathUnits="userSpaceOnUse"
       id="clipPath225"><path
         d="M 0,364.252 H 171.779 V 0 H 0 Z"
         transform="translate(-76.266602,-260.08301)"
         id="path225" /></clipPath></defs><g
     id="layer-MC0"
     inkscape:groupmode="layer"
     inkscape:label="labels"
     transform="matrix(0.26458332,0,0,0.26458334,-24.516826,-34.315397)"><path
       id="path218"
       d="m 75.767,261.898 h -1.314 v -1.315 h 1.314 z"
       style="fill:#03a3ac;fill-opacity:1;fill-rule:nonzero;stroke:none"
       transform="matrix(1.3333333,0,0,-1.3333333,0,485.66933)"
       clip-path="url(#clipPath219)" /><path
       id="path220"
       d="m 73.046,263.966 h -1.314 v -1.315 h 1.314 z"
       style="fill:#03a3ac;fill-opacity:1;fill-rule:nonzero;stroke:none"
       transform="matrix(1.3333333,0,0,-1.3333333,0,485.66933)"
       clip-path="url(#clipPath221)" /><path
       id="path222"
       d="M 0,0 H 0.408 V 1.315 H -0.906 V 0.907 H 0 Z"
       style="fill:#03a3ac;fill-opacity:1;fill-rule:nonzero;stroke:none"
       transform="matrix(1.3333333,0,0,-1.3333333,98.0612,134.25787)"
       clip-path="url(#clipPath223)" /><path
       id="path224"
       d="m 0,0 h -2.314 v 0.941 h -1.78 v 1.126 h -0.941 v 2.316 h 0.908 v 0.908 h 2.315 V 2.976 H -2.721 V 2.067 H -3.66 V 1.375 h 1.346 v 0.94 H 0 Z m -2.518,6.897 c -2.347,0 -4.252,-1.903 -4.252,-4.251 0,-2.349 1.905,-4.252 4.252,-4.252 2.35,0 4.252,1.903 4.252,4.252 0,2.348 -1.902,4.251 -4.252,4.251"
       style="fill:#03a3ac;fill-opacity:1;fill-rule:nonzero;stroke:none"
       transform="matrix(1.3333333,0,0,-1.3333333,101.6888,138.892)"
       clip-path="url(#clipPath225)" /></g></svg>
