<?xml version="1.0" encoding="UTF-8" standalone="no"?>
<!-- Created with Inkscape (http://www.inkscape.org/) -->

<svg
   width="3.0000267mm"
   height="3.0000226mm"
   viewBox="0 0 3.0000267 3.0000228"
   version="1.1"
   id="svg1"
   xml:space="preserve"
   xmlns:inkscape="http://www.inkscape.org/namespaces/inkscape"
   xmlns:sodipodi="http://sodipodi.sourceforge.net/DTD/sodipodi-0.dtd"
   xmlns="http://www.w3.org/2000/svg"
   xmlns:svg="http://www.w3.org/2000/svg"><sodipodi:namedview
     id="namedview1"
     pagecolor="#ffffff"
     bordercolor="#000000"
     borderopacity="0.25"
     inkscape:showpageshadow="2"
     inkscape:pageopacity="0.0"
     inkscape:pagecheckerboard="0"
     inkscape:deskcolor="#d1d1d1"
     inkscape:document-units="mm"><inkscape:page
       x="-3.4398052e-08"
       y="-8.2368427e-07"
       width="3.0000267"
       height="3.0000229"
       id="page3"
       margin="0"
       bleed="0" /></sodipodi:namedview><defs
     id="defs1"><clipPath
       clipPathUnits="userSpaceOnUse"
       id="clipPath365"><path
         d="M 0,364.252 H 171.779 V 0 H 0 Z"
         transform="translate(-75.416004,-293.89261)"
         id="path365" /></clipPath></defs><g
     id="layer-MC0"
     inkscape:groupmode="layer"
     inkscape:label="labels"
     transform="matrix(0.26458332,0,0,0.26458334,-24.516979,-23.36179)"><path
       id="path364"
       d="m 0,0 c 0,-0.138 -0.112,-0.25 -0.25,-0.25 -0.138,0 -0.25,0.112 -0.25,0.25 v 0.227 l -2.486,-1.06 c -0.032,-0.014 -0.065,-0.021 -0.098,-0.021 -0.048,0 -0.097,0.014 -0.138,0.042 -0.07,0.046 -0.112,0.125 -0.112,0.208 v 0.606 c 0,0.138 0.112,0.25 0.25,0.25 0.138,0 0.25,-0.112 0.25,-0.25 v -0.227 l 2.486,1.06 C -0.271,0.868 -0.181,0.86 -0.112,0.814 -0.042,0.768 0,0.689 0,0.605 Z m 0,-2.666 c 0,-0.138 -0.112,-0.25 -0.25,-0.25 h -1.419 c -0.138,0 -0.25,0.112 -0.25,0.25 v 0.96 h -0.915 v -0.355 c 0,-0.137 -0.112,-0.25 -0.25,-0.25 -0.138,0 -0.25,0.113 -0.25,0.25 v 0.605 c 0,0.138 0.112,0.25 0.25,0.25 h 1.415 c 0.138,0 0.25,-0.112 0.25,-0.25 v -0.96 H -0.5 v 0.355 c 0,0.138 0.112,0.25 0.25,0.25 0.138,0 0.25,-0.112 0.25,-0.25 z m -3.246,4.687 0.708,0.605 c 0.094,0.08 0.23,0.08 0.324,0 l 1.256,-1.071 0.546,0.466 C -0.308,2.109 -0.15,2.099 -0.06,1.993 0.029,1.889 0.018,1.73 -0.088,1.641 L -0.796,1.035 C -0.843,0.995 -0.9,0.976 -0.958,0.976 c -0.058,0 -0.115,0.019 -0.162,0.059 L -2.376,2.106 -2.922,1.641 c -0.103,-0.09 -0.261,-0.079 -0.352,0.028 -0.089,0.104 -0.078,0.263 0.028,0.352 m 1.579,2.116 c -2.348,0 -4.252,-1.904 -4.252,-4.252 0,-2.349 1.904,-4.252 4.252,-4.252 2.35,0 4.252,1.903 4.252,4.252 0,2.348 -1.902,4.252 -4.252,4.252"
       style="fill:#03a3ac;fill-opacity:1;fill-rule:nonzero;stroke:none"
       transform="matrix(1.3333333,0,0,-1.3333333,100.55467,93.812533)"
       clip-path="url(#clipPath365)" /></g></svg>
