<?xml version="1.0" encoding="UTF-8" standalone="no"?>
<!-- Created with Inkscape (http://www.inkscape.org/) -->

<svg
   width="3.0000267mm"
   height="2.9996715mm"
   viewBox="0 0 3.0000267 2.9996716"
   version="1.1"
   id="svg1"
   xml:space="preserve"
   xmlns:inkscape="http://www.inkscape.org/namespaces/inkscape"
   xmlns:sodipodi="http://sodipodi.sourceforge.net/DTD/sodipodi-0.dtd"
   xmlns="http://www.w3.org/2000/svg"
   xmlns:svg="http://www.w3.org/2000/svg"><sodipodi:namedview
     id="namedview1"
     pagecolor="#ffffff"
     bordercolor="#000000"
     borderopacity="0.25"
     inkscape:showpageshadow="2"
     inkscape:pageopacity="0.0"
     inkscape:pagecheckerboard="0"
     inkscape:deskcolor="#d1d1d1"
     inkscape:document-units="mm"><inkscape:page
       x="-4.6469612e-08"
       y="1.2387321e-06"
       width="3.0000267"
       height="2.9996717"
       id="page3"
       margin="0"
       bleed="0" /></sodipodi:namedview><defs
     id="defs1"><clipPath
       clipPathUnits="userSpaceOnUse"
       id="clipPath373"><path
         d="M 0,364.252 H 171.779 V 0 H 0 Z"
         transform="translate(-100.91511,-262.37311)"
         id="path373" /></clipPath></defs><g
     id="layer-MC0"
     inkscape:groupmode="layer"
     inkscape:label="labels"
     transform="matrix(0.26458332,0,0,0.26458334,-33.120904,-34.315363)"><path
       id="path372"
       d="M 0,0 C -0.182,0 -0.329,0.146 -0.329,0.328 -0.329,0.51 -0.182,0.656 0,0.656 0.181,0.656 0.327,0.51 0.327,0.328 0.327,0.146 0.181,0 0,0 m -0.9,-0.969 c -0.248,0 -0.452,0.201 -0.452,0.45 0,0.249 0.204,0.451 0.452,0.451 0.248,0 0.449,-0.202 0.449,-0.451 0,-0.249 -0.201,-0.45 -0.449,-0.45 m -0.565,2.023 c 0,0.196 0.158,0.354 0.354,0.354 0.195,0 0.355,-0.158 0.355,-0.354 0,-0.197 -0.16,-0.355 -0.355,-0.355 -0.196,0 -0.354,0.158 -0.354,0.355 m -0.336,-3.057 c -0.176,0 -0.319,0.142 -0.319,0.318 0,0.177 0.143,0.319 0.319,0.319 0.176,0 0.318,-0.142 0.318,-0.319 0,-0.176 -0.142,-0.318 -0.318,-0.318 m -0.66,1.805 c 0,0.249 0.201,0.45 0.449,0.45 0.248,0 0.451,-0.201 0.451,-0.45 0,-0.249 -0.203,-0.45 -0.451,-0.45 -0.248,0 -0.449,0.201 -0.449,0.45 m -0.691,1.331 c 0,0.249 0.203,0.45 0.451,0.45 0.248,0 0.449,-0.201 0.449,-0.45 0,-0.249 -0.201,-0.45 -0.449,-0.45 -0.248,0 -0.451,0.201 -0.451,0.45 m 0,-2.232 c -0.248,0 -0.45,0.202 -0.45,0.451 0,0.249 0.202,0.45 0.45,0.45 0.248,0 0.451,-0.201 0.451,-0.45 0,-0.249 -0.203,-0.451 -0.451,-0.451 m -0.967,0.901 c -0.248,0 -0.451,0.201 -0.451,0.45 0,0.249 0.203,0.45 0.451,0.45 0.248,0 0.449,-0.201 0.449,-0.45 0,-0.249 -0.201,-0.45 -0.449,-0.45 M -4.57,-1.773 c -0.196,0 -0.354,0.158 -0.354,0.354 0,0.196 0.158,0.355 0.354,0.355 0.195,0 0.355,-0.159 0.355,-0.355 0,-0.196 -0.16,-0.354 -0.355,-0.354 m -0.084,3.71 c 0.195,0 0.355,-0.158 0.355,-0.354 0,-0.196 -0.16,-0.354 -0.355,-0.354 -0.196,0 -0.354,0.158 -0.354,0.354 0,0.196 0.158,0.354 0.354,0.354 m -0.901,-2.249 c -0.18,0 -0.327,0.146 -0.327,0.328 0,0.181 0.147,0.328 0.327,0.328 0.182,0 0.329,-0.147 0.329,-0.328 0,-0.182 -0.147,-0.328 -0.329,-0.328 m 2.543,3.062 c 0.196,0 0.354,-0.158 0.354,-0.354 0,-0.197 -0.158,-0.355 -0.354,-0.355 -0.195,0 -0.355,0.158 -0.355,0.355 0,0.196 0.16,0.354 0.355,0.354 m 0.235,1.857 c -2.35,0 -4.252,-1.903 -4.252,-4.252 0,-2.348 1.902,-4.251 4.252,-4.251 2.347,0 4.252,1.903 4.252,4.251 0,2.349 -1.905,4.252 -4.252,4.252"
       style="fill:#db285d;fill-opacity:1;fill-rule:nonzero;stroke:none"
       transform="matrix(1.3333333,0,0,-1.3333333,134.55347,135.83853)"
       clip-path="url(#clipPath373)" /></g></svg>
