<?xml version="1.0" encoding="UTF-8" standalone="no"?>
<!-- Created with Inkscape (http://www.inkscape.org/) -->

<svg
   width="3.0000267mm"
   height="3.0000186mm"
   viewBox="0 0 3.0000267 3.0000187"
   version="1.1"
   id="svg1"
   xml:space="preserve"
   xmlns:inkscape="http://www.inkscape.org/namespaces/inkscape"
   xmlns:sodipodi="http://sodipodi.sourceforge.net/DTD/sodipodi-0.dtd"
   xmlns="http://www.w3.org/2000/svg"
   xmlns:svg="http://www.w3.org/2000/svg"><sodipodi:namedview
     id="namedview1"
     pagecolor="#ffffff"
     bordercolor="#000000"
     borderopacity="0.25"
     inkscape:showpageshadow="2"
     inkscape:pageopacity="0.0"
     inkscape:pagecheckerboard="0"
     inkscape:deskcolor="#d1d1d1"
     inkscape:document-units="mm"><inkscape:page
       x="-4.6469399e-08"
       y="-6.4591927e-07"
       width="3.0000267"
       height="3.0000188"
       id="page3"
       margin="0"
       bleed="0" /></sodipodi:namedview><defs
     id="defs1"><clipPath
       clipPathUnits="userSpaceOnUse"
       id="clipPath227"><path
         d="M 0,364.252 H 171.779 V 0 H 0 Z"
         transform="translate(-98.1358,-232.86041)"
         id="path227" /></clipPath><clipPath
       clipPathUnits="userSpaceOnUse"
       id="clipPath229"><path
         d="M 0,364.252 H 171.779 V 0 H 0 Z"
         transform="translate(-98.1358,-230.0831)"
         id="path229" /></clipPath><clipPath
       clipPathUnits="userSpaceOnUse"
       id="clipPath231"><path
         d="M 0,364.252 H 171.779 V 0 H 0 Z"
         transform="translate(-98.1358,-231.12991)"
         id="path231" /></clipPath><clipPath
       clipPathUnits="userSpaceOnUse"
       id="clipPath233"><path
         d="M 0,364.252 H 171.779 V 0 H 0 Z"
         transform="translate(-98.137705,-228.95611)"
         id="path233" /></clipPath></defs><g
     id="layer-MC0"
     inkscape:groupmode="layer"
     inkscape:label="labels"
     transform="matrix(0.26458332,0,0,0.26458334,-33.120752,-45.069089)"><path
       id="path226"
       d="m 0,0 c -0.337,0 -0.611,-0.276 -0.611,-0.615 0,-0.339 0.274,-0.615 0.611,-0.615 0.339,0 0.615,0.276 0.615,0.615 C 0.615,-0.276 0.339,0 0,0"
       style="fill:#db285d;fill-opacity:1;fill-rule:nonzero;stroke:none"
       transform="matrix(1.3333333,0,0,-1.3333333,130.84773,175.1888)"
       clip-path="url(#clipPath227)" /><path
       id="path228"
       d="m 0,0 c -1.191,0 -2.16,0.97 -2.16,2.162 0,1.192 0.969,2.162 2.16,2.162 1.193,0 2.164,-0.97 2.164,-2.162 C 2.164,0.97 1.193,0 0,0 m 0.002,4.951 c -1.539,0 -2.791,-1.251 -2.791,-2.789 0,-1.538 1.252,-2.789 2.791,-2.789 1.539,0 2.791,1.251 2.791,2.789 0,1.538 -1.252,2.789 -2.791,2.789"
       style="fill:#db285d;fill-opacity:1;fill-rule:nonzero;stroke:none"
       transform="matrix(1.3333333,0,0,-1.3333333,130.84773,178.89187)"
       clip-path="url(#clipPath229)" /><path
       id="path230"
       d="M 0,0 C -0.612,0 -1.111,0.5 -1.111,1.115 -1.111,1.73 -0.612,2.23 0,2.23 0.615,2.23 1.115,1.73 1.115,1.115 1.115,0.5 0.615,0 0,0 m 0,2.777 c -0.915,0 -1.66,-0.746 -1.66,-1.662 0,-0.916 0.745,-1.662 1.66,-1.662 0.918,0 1.664,0.746 1.664,1.662 0,0.916 -0.746,1.662 -1.664,1.662"
       style="fill:#db285d;fill-opacity:1;fill-rule:nonzero;stroke:none"
       transform="matrix(1.3333333,0,0,-1.3333333,130.84773,177.49613)"
       clip-path="url(#clipPath231)" /><path
       id="path232"
       d="m 0,0 c -1.814,0 -3.291,1.476 -3.291,3.289 0,1.814 1.477,3.289 3.291,3.289 1.814,0 3.291,-1.475 3.291,-3.289 C 3.291,1.476 1.814,0 0,0 m 0,7.541 c -2.35,0 -4.252,-1.903 -4.252,-4.252 0,-2.349 1.902,-4.252 4.252,-4.252 2.348,0 4.252,1.903 4.252,4.252 0,2.349 -1.904,4.252 -4.252,4.252"
       style="fill:#db285d;fill-opacity:1;fill-rule:nonzero;stroke:none"
       transform="matrix(1.3333333,0,0,-1.3333333,130.85027,180.39453)"
       clip-path="url(#clipPath233)" /></g></svg>
