<?xml version="1.0" encoding="UTF-8" standalone="no"?>
<!-- Created with Inkscape (http://www.inkscape.org/) -->

<svg
   width="3.0000267mm"
   height="3.0000226mm"
   viewBox="0 0 3.0000267 3.0000228"
   version="1.1"
   id="svg1"
   xml:space="preserve"
   xmlns:inkscape="http://www.inkscape.org/namespaces/inkscape"
   xmlns:sodipodi="http://sodipodi.sourceforge.net/DTD/sodipodi-0.dtd"
   xmlns="http://www.w3.org/2000/svg"
   xmlns:svg="http://www.w3.org/2000/svg"><sodipodi:namedview
     id="namedview1"
     pagecolor="#ffffff"
     bordercolor="#000000"
     borderopacity="0.25"
     inkscape:showpageshadow="2"
     inkscape:pageopacity="0.0"
     inkscape:pagecheckerboard="0"
     inkscape:deskcolor="#d1d1d1"
     inkscape:document-units="mm"><inkscape:page
       x="-4.6469292e-08"
       y="-1.7803674e-06"
       width="3.0000267"
       height="3.0000229"
       id="page3"
       margin="0"
       bleed="0" /></sodipodi:namedview><defs
     id="defs1"><clipPath
       clipPathUnits="userSpaceOnUse"
       id="clipPath245"><path
         d="M 0,364.252 H 171.779 V 0 H 0 Z"
         transform="translate(-100.27641,-215.6924)"
         id="path245" /></clipPath><clipPath
       clipPathUnits="userSpaceOnUse"
       id="clipPath247"><path
         d="M 0,364.252 H 171.779 V 0 H 0 Z"
         transform="translate(-98.137705,-216.96391)"
         id="path247" /></clipPath><clipPath
       clipPathUnits="userSpaceOnUse"
       id="clipPath249"><path
         d="M 0,364.252 H 171.779 V 0 H 0 Z"
         transform="translate(-98.137705,-219.42491)"
         id="path249" /></clipPath></defs><g
     id="layer-MC0"
     inkscape:groupmode="layer"
     inkscape:label="labels"
     transform="matrix(0.26458332,0,0,0.26458334,-33.120676,-50.495767)"><path
       id="path244"
       d="m 0,0 v -1.643 h -0.5 v 1.168 c -0.39,-0.31 -0.865,-0.509 -1.389,-0.559 v -0.609 h -0.5 v 0.609 c -0.478,0.046 -0.921,0.212 -1.291,0.478 v -1.087 h -0.5 v 1.566 c -0.373,0.456 -0.605,1.031 -0.605,1.664 0,1.459 1.187,2.645 2.646,2.645 1.459,0 2.647,-1.186 2.647,-2.645 C 0.508,0.989 0.301,0.443 -0.034,0 Z m -2.139,5.422 c -2.349,0 -4.252,-1.903 -4.252,-4.252 0,-2.349 1.903,-4.252 4.252,-4.252 2.348,0 4.252,1.903 4.252,4.252 0,2.349 -1.904,4.252 -4.252,4.252"
       style="fill:#db285d;fill-opacity:1;fill-rule:nonzero;stroke:none"
       transform="matrix(1.3333333,0,0,-1.3333333,133.70187,198.07947)"
       clip-path="url(#clipPath245)" /><path
       id="path246"
       d="m 0,0 c -0.163,0 -0.295,-0.132 -0.295,-0.293 0,-0.163 0.132,-0.296 0.295,-0.296 0.161,0 0.293,0.133 0.293,0.296 C 0.293,-0.132 0.161,0 0,0"
       style="fill:#db285d;fill-opacity:1;fill-rule:nonzero;stroke:none"
       transform="matrix(1.3333333,0,0,-1.3333333,130.85027,196.38413)"
       clip-path="url(#clipPath247)" /><path
       id="path248"
       d="m 0,0 c -1.184,0 -2.146,-0.963 -2.146,-2.146 0,-1.097 0.832,-1.996 1.896,-2.121 v 0.768 c -0.314,0.106 -0.545,0.395 -0.545,0.745 0,0.438 0.357,0.793 0.795,0.793 0.437,0 0.793,-0.355 0.793,-0.793 0,-0.35 -0.23,-0.639 -0.543,-0.745 v -0.768 c 1.064,0.125 1.896,1.024 1.896,2.121 C 2.146,-0.963 1.184,0 0,0"
       style="fill:#db285d;fill-opacity:1;fill-rule:nonzero;stroke:none"
       transform="matrix(1.3333333,0,0,-1.3333333,130.85027,193.1028)"
       clip-path="url(#clipPath249)" /></g></svg>
