<?xml version="1.0" encoding="UTF-8" standalone="no"?>
<!-- Created with Inkscape (http://www.inkscape.org/) -->

<svg
   width="3.0000267mm"
   height="2.9996715mm"
   viewBox="0 0 3.0000267 2.9996716"
   version="1.1"
   id="svg1"
   xml:space="preserve"
   xmlns:inkscape="http://www.inkscape.org/namespaces/inkscape"
   xmlns:sodipodi="http://sodipodi.sourceforge.net/DTD/sodipodi-0.dtd"
   xmlns="http://www.w3.org/2000/svg"
   xmlns:svg="http://www.w3.org/2000/svg"><sodipodi:namedview
     id="namedview1"
     pagecolor="#ffffff"
     bordercolor="#000000"
     borderopacity="0.25"
     inkscape:showpageshadow="2"
     inkscape:pageopacity="0.0"
     inkscape:pagecheckerboard="0"
     inkscape:deskcolor="#d1d1d1"
     inkscape:document-units="mm"><inkscape:page
       x="-4.6469356e-08"
       y="2.0151169e-06"
       width="3.0000267"
       height="2.9996717"
       id="page3"
       margin="0"
       bleed="0" /></sodipodi:namedview><defs
     id="defs1"><clipPath
       clipPathUnits="userSpaceOnUse"
       id="clipPath237"><path
         d="M 0,364.252 H 171.779 V 0 H 0 Z"
         transform="translate(-96.413102,-201.9092)"
         id="path237" /></clipPath><clipPath
       clipPathUnits="userSpaceOnUse"
       id="clipPath239"><path
         d="M 0,364.252 H 171.779 V 0 H 0 Z"
         transform="translate(-98.111305,-201.0176)"
         id="path239" /></clipPath><clipPath
       clipPathUnits="userSpaceOnUse"
       id="clipPath241"><path
         d="M 0,364.252 H 171.779 V 0 H 0 Z"
         transform="translate(-96.6358,-203.23831)"
         id="path241" /></clipPath><clipPath
       clipPathUnits="userSpaceOnUse"
       id="clipPath243"><path
         d="M 0,364.252 H 171.779 V 0 H 0 Z"
         transform="translate(-100.30761,-201.70021)"
         id="path243" /></clipPath></defs><g
     id="layer-MC0"
     inkscape:groupmode="layer"
     inkscape:label="labels"
     transform="matrix(0.26458332,0,0,0.26458334,-33.120721,-55.822778)"><path
       id="path236"
       d="m 0,0 c 0.04,-0.099 0.618,-0.392 1.698,-0.392 1.081,0 1.66,0.294 1.698,0.407 C 3.356,0.116 2.794,0.405 1.698,0.405 0.604,0.405 0.042,0.117 0,0.002 Z"
       style="fill:#db285d;fill-opacity:1;fill-rule:nonzero;stroke:none"
       transform="matrix(1.3333333,0,0,-1.3333333,128.5508,216.45707)"
       clip-path="url(#clipPath237)" /><path
       id="path238"
       d="m 0,0 c -0.623,0 -1.269,0.101 -1.698,0.307 v -1.29 c 0.036,-0.106 0.615,-0.4 1.698,-0.4 1.099,0 1.659,0.29 1.697,0.405 L 1.696,0.307 C 1.267,0.101 0.622,0 0,0"
       style="fill:#db285d;fill-opacity:1;fill-rule:nonzero;stroke:none"
       transform="matrix(1.3333333,0,0,-1.3333333,130.81507,217.64587)"
       clip-path="url(#clipPath239)" /><path
       id="path240"
       d="M 0,0 C 0.18,0 0.326,0.146 0.326,0.326 0.326,0.506 0.18,0.652 0,0.652 -0.18,0.652 -0.326,0.506 -0.326,0.326 -0.326,0.146 -0.18,0 0,0"
       style="fill:#db285d;fill-opacity:1;fill-rule:nonzero;stroke:none"
       transform="matrix(1.3333333,0,0,-1.3333333,128.84773,214.68493)"
       clip-path="url(#clipPath241)" /><path
       id="path242"
       d="m 0,0 v -1.666 c 0,-0.618 -1.139,-0.899 -2.196,-0.899 -1.059,0 -2.199,0.281 -2.199,0.899 v 1.883 c 0,0.616 1.14,0.897 2.199,0.897 C -1.139,1.114 0,0.833 0,0.217 0,0.14 -0.018,0.067 -0.052,0 Z m -3.672,2.69 c 0.366,0 0.668,-0.245 0.776,-0.576 h 2.804 v -0.5 h -2.804 c -0.108,-0.331 -0.41,-0.576 -0.776,-0.576 -0.455,0 -0.826,0.371 -0.826,0.826 0,0.455 0.371,0.826 0.826,0.826 m 1.502,1.624 c -2.35,0 -4.252,-1.903 -4.252,-4.252 0,-2.348 1.902,-4.251 4.252,-4.251 2.348,0 4.252,1.903 4.252,4.251 0,2.349 -1.904,4.252 -4.252,4.252"
       style="fill:#db285d;fill-opacity:1;fill-rule:nonzero;stroke:none"
       transform="matrix(1.3333333,0,0,-1.3333333,133.74347,216.73573)"
       clip-path="url(#clipPath243)" /></g></svg>
