<?xml version="1.0" encoding="UTF-8" standalone="no"?>
<!-- Created with Inkscape (http://www.inkscape.org/) -->

<svg
   width="3.0000267mm"
   height="3.0000226mm"
   viewBox="0 0 3.0000267 3.0000228"
   version="1.1"
   id="svg1"
   xml:space="preserve"
   xmlns:inkscape="http://www.inkscape.org/namespaces/inkscape"
   xmlns:sodipodi="http://sodipodi.sourceforge.net/DTD/sodipodi-0.dtd"
   xmlns="http://www.w3.org/2000/svg"
   xmlns:svg="http://www.w3.org/2000/svg"><sodipodi:namedview
     id="namedview1"
     pagecolor="#ffffff"
     bordercolor="#000000"
     borderopacity="0.25"
     inkscape:showpageshadow="2"
     inkscape:pageopacity="0.0"
     inkscape:pagecheckerboard="0"
     inkscape:deskcolor="#d1d1d1"
     inkscape:document-units="mm"><inkscape:page
       x="-4.6469399e-08"
       y="-2.1595069e-06"
       width="3.0000267"
       height="3.0000229"
       id="page3"
       margin="0"
       bleed="0" /></sodipodi:namedview><defs
     id="defs1"><clipPath
       clipPathUnits="userSpaceOnUse"
       id="clipPath251"><path
         d="M 0,364.252 H 171.779 V 0 H 0 Z"
         transform="translate(-98.137705,-188.2559)"
         id="path251" /></clipPath><clipPath
       clipPathUnits="userSpaceOnUse"
       id="clipPath253"><path
         d="M 0,364.252 H 171.779 V 0 H 0 Z"
         transform="translate(-98.137705,-184.504)"
         id="path253" /></clipPath><clipPath
       clipPathUnits="userSpaceOnUse"
       id="clipPath255"><path
         d="M 0,364.252 H 171.779 V 0 H 0 Z"
         transform="translate(-100.97271,-186.61141)"
         id="path255" /></clipPath></defs><g
     id="layer-MC0"
     inkscape:groupmode="layer"
     inkscape:label="labels"
     transform="matrix(0.26458332,0,0,0.26458334,-33.120752,-61.249135)"><path
       id="path250"
       d="M 0,0 C -0.507,0 -0.864,-0.374 -1.242,-0.771 -1.363,-0.898 -1.486,-1.026 -1.615,-1.145 H 1.616 C 1.487,-1.026 1.364,-0.898 1.243,-0.771 0.864,-0.374 0.507,0 0,0"
       style="fill:#db285d;fill-opacity:1;fill-rule:nonzero;stroke:none"
       transform="matrix(1.3333333,0,0,-1.3333333,130.85027,234.66147)"
       clip-path="url(#clipPath251)" /><path
       id="path252"
       d="M 0,0 C 0.507,0 0.864,0.374 1.242,0.771 1.363,0.898 1.486,1.026 1.615,1.145 H -1.616 C -1.487,1.026 -1.364,0.898 -1.243,0.771 -0.864,0.374 -0.507,0 0,0"
       style="fill:#db285d;fill-opacity:1;fill-rule:nonzero;stroke:none"
       transform="matrix(1.3333333,0,0,-1.3333333,130.85027,239.664)"
       clip-path="url(#clipPath253)" /><path
       id="path254"
       d="m 0,0 h -5.668 v 0.5 h 0.109 c 0.434,0 0.752,0.333 1.12,0.719 0.414,0.433 0.882,0.926 1.604,0.926 0.721,0 1.19,-0.492 1.605,-0.926 C -0.862,0.833 -0.544,0.5 -0.109,0.5 H 0 Z m -0.111,-0.963 c -0.434,0 -0.752,-0.333 -1.119,-0.719 -0.415,-0.433 -0.883,-0.925 -1.605,-0.925 -0.721,0 -1.19,0.491 -1.604,0.925 -0.369,0.386 -0.687,0.719 -1.122,0.719 H -5.67 v 0.5 h 5.559 z m -2.724,4.984 c -2.35,0 -4.252,-1.904 -4.252,-4.252 0,-2.349 1.902,-4.252 4.252,-4.252 2.348,0 4.252,1.903 4.252,4.252 0,2.348 -1.904,4.252 -4.252,4.252"
       style="fill:#db285d;fill-opacity:1;fill-rule:nonzero;stroke:none"
       transform="matrix(1.3333333,0,0,-1.3333333,134.63027,236.85413)"
       clip-path="url(#clipPath255)" /></g></svg>
