<?xml version="1.0" encoding="UTF-8" standalone="no"?>
<!-- Created with Inkscape (http://www.inkscape.org/) -->

<svg
   width="3.1072712mm"
   height="3.1062098mm"
   viewBox="0 0 3.1072712 3.1062099"
   version="1.1"
   id="svg1"
   xml:space="preserve"
   xmlns:inkscape="http://www.inkscape.org/namespaces/inkscape"
   xmlns:sodipodi="http://sodipodi.sourceforge.net/DTD/sodipodi-0.dtd"
   xmlns="http://www.w3.org/2000/svg"
   xmlns:svg="http://www.w3.org/2000/svg"><sodipodi:namedview
     id="namedview1"
     pagecolor="#ffffff"
     bordercolor="#000000"
     borderopacity="0.25"
     inkscape:showpageshadow="2"
     inkscape:pageopacity="0.0"
     inkscape:pagecheckerboard="0"
     inkscape:deskcolor="#d1d1d1"
     inkscape:document-units="mm"><inkscape:page
       x="-7.3912716e-09"
       y="9.7250472e-07"
       width="3.1072714"
       height="3.10621"
       id="page3"
       margin="0"
       bleed="0" /></sodipodi:namedview><defs
     id="defs1"><clipPath
       clipPathUnits="userSpaceOnUse"
       id="clipPath275"><path
         d="M 0,364.252 H 171.779 V 0 H 0 Z"
         transform="translate(-14.5801,-175.48831)"
         id="path275" /></clipPath><clipPath
       clipPathUnits="userSpaceOnUse"
       id="clipPath277"><path
         d="M 0,364.252 H 171.779 V 0 H 0 Z"
         transform="translate(-15.699201,-170.8106)"
         id="path277" /></clipPath></defs><g
     id="layer-MC0"
     inkscape:groupmode="layer"
     inkscape:label="labels"
     transform="matrix(0.26458332,0,0,0.26458334,-3.5751001,-65.797429)"><path
       id="path274"
       d="m 0,0 c -1.222,0 -1.365,-1.199 -1.37,-1.25 l 0.001,-1.268 H 1.284 V -1.21 C 1.276,-1.106 1.171,0 0,0"
       style="fill:#231f20;fill-opacity:1;fill-rule:nonzero;stroke:none"
       transform="matrix(1.3333333,0,0,-1.3333333,19.440133,251.68493)"
       clip-path="url(#clipPath275)" /><path
       id="path276"
       d="M 0,0 H -0.75 V 1.41 H -1.572 V 0 h -0.75 v 1.41 h -0.915 v 2.058 c 0.074,0.704 0.608,1.96 2.118,1.96 1.525,0 1.997,-1.269 2.033,-1.94 L 0.915,1.41 H 0 Z m -1.161,6.929 c -2.43,0 -4.404,-1.971 -4.404,-4.403 0,-2.431 1.974,-4.402 4.404,-4.402 2.432,0 4.404,1.971 4.404,4.402 0,2.432 -1.972,4.403 -4.404,4.403"
       style="fill:#231f20;fill-opacity:1;fill-rule:nonzero;stroke:none"
       transform="matrix(1.3333333,0,0,-1.3333333,20.932267,257.92187)"
       clip-path="url(#clipPath277)" /></g></svg>
